<svg xmlns="http://www.w3.org/2000/svg" viewBox="0 0 58 58"><defs><style>.cls-1{fill:#201f56;}.cls-2{fill:#ededf7;}.cls-3{fill:#ec342e;}.cls-4{fill:#ed4c4c;}.cls-5{fill:#34b75c;}.cls-6{fill:#fff;}</style></defs><title>success</title><g id="Layer_2" data-name="Layer 2"><g id="OBJECTS"><path class="cls-1" d="M41.8,10.91,30.86.73a2.74,2.74,0,0,0-3.72,0L16.25,10.91Z"/><polygon class="cls-2" points="51.97 2.91 5.97 2.91 5.97 32.45 20.97 49.62 36.97 49.62 51.97 32.45 51.97 2.91"/><polygon class="cls-1" points="6.11 30.65 6 30.57 6 20.41 0 26 0 26 6.11 30.65"/><polygon class="cls-1" points="52 20.41 52 30.57 51.79 30.73 51.79 30.73 58 26 58 26 52 20.41"/><polygon class="cls-3" points="0 58 0.13 58 57.54 58 57.87 58 58 58 37 42 21 42 0 58"/><polygon class="cls-4" points="0 58 0 26 21 42 0 58"/><polygon class="cls-4" points="58 58 58 26 37 42 58 58"/><circle class="cls-5" cx="28.97" cy="21.04" r="10.21"/><path class="cls-6" d="M35.73,17.52,27.27,26A.18.18,0,0,1,27,26l-4.8-4.8a.18.18,0,0,1,0-.27l1.17-1.17a.2.2,0,0,1,.27,0l3.5,3.51,7.16-7.16a.18.18,0,0,1,.27,0l1.16,1.16A.18.18,0,0,1,35.73,17.52Z"/></g></g></svg>